# xmcd
#
# Track frame offsets:
#	150
#	15022
#	29489
#	51945
#	67425
#	78159
#	94487
#	107820
#	121446
#	133040
#	145658
#	158883
#	174845
#	188268
#
# Disc length: 2702 seconds
#
# Revision: 0
# Processed by: cddbd v1.5.1PL2 Copyright (c) Steve Scherf et al.
# Submitted via: dBpowerAMP V4.0
#
DISCID=b50a8c0e
DTITLE=Various Artist - Country Music Superstars [CD1 of 2)
DYEAR=2005
DGENRE=Country
TTITLE0=Eddie Rabbitt - Drivin' My Life Away
TTITLE1=Eddie Rabbitt - I Love A Rainy Night
TTITLE2=Eddie Rabbitt - Suspicions
TTITLE3=Eddie Rabbitt - Love May Never Pass This Way Again
TTITLE4=Eddie Rabbitt - Two Dollars In The Jukebox
TTITLE5=Eddie Rabbitt - On Second Thought
TTITLE6=Mickey Gilley - Room Full Of Roses
TTITLE7=Mickey Gilley - I Overlooked An Orchid
TTITLE8=Mickey Gilley - Window Up Above
TTITLE9=Mickey Gilley - City Lights
TTITLE10=Mickey Gilley - Don't The Girls All Get Prettier At Closing Time
TTITLE11=Mickey Gilley - Talk To Me
TTITLE12=Mickey Gilley - True Love Ways
TTITLE13=Mickey Gilley - You Don't Know Me
EXTD=
EXTT0=
EXTT1=
EXTT2=
EXTT3=
EXTT4=
EXTT5=
EXTT6=
EXTT7=
EXTT8=
EXTT9=
EXTT10=
EXTT11=
EXTT12=
EXTT13=
PLAYORDER=
